<svg height="511pt" viewBox="-41 0 511 511.997" width="511pt" xmlns="http://www.w3.org/2000/svg"><path d="m178.820312 242.289062s-43.328124-5.574218-42.804687 41.835938c0 0-42.722656-16.152344-48.972656 29.175781 0 0-53.140625 8.335938-48.972657 61.472657 4.167969 53.140624 62.519532 44.285156 74.5 37.511718 0 0 20.320313 59.914063 101.59375 21.359375 0 0 6.25 40.117188 81.273438 31.261719l32.300781 39.59375h11.460938l-12.503907-63.039062s30.21875 4.167968 32.300782-28.132813c0 0 33.34375-38.03125-17.191406-60.957031 0 0 16-105.394532-89.609376-102.632813 0 0-24.320312-38.859375-73.375-7.449219zm0 0" fill="#76ffd9"/><path d="m339.199219 504.5h-11.464844l-32.300781-39.59375c-75.019532 8.855469-81.273438-31.261719-81.273438-31.261719-81.273437 38.554688-101.589844-21.359375-101.589844-21.359375-11.984374 6.773438-70.332031 15.628906-74.5-37.511718-.605468-7.75 0-14.554688 1.5-20.503907 10.15625 42.273438 61.808594 34.125 73 27.800781 0 0 20.316407 59.910157 101.589844 21.359376 0 0 6.253906 40.117187 81.273438 31.257812l32.300781 39.59375h5.46875zm0 0" fill="#5de0bf"/><path d="m309.824219 95.523438c0-48.613282-39.40625-88.023438-88.023438-88.023438-48.375 0-87.605469 38.878906-88.019531 87.253906-.191406 22.222656 7.855469 42.566406 21.273438 58.152344 18.191406 21.140625 28.292968 48.046875 28.292968 75.933594v13.140625h76.90625v-13.136719c0-28.039062 10.394532-54.925781 28.582032-76.269531 13.089843-15.363281 20.988281-35.285157 20.988281-57.050781zm0 0" fill="#ffc843"/><path d="m175.949219 149.046875c18.191406 21.136719 28.292969 48.039063 28.292969 75.929687v17.003907h-20.894532v-13.140625c0-27.890625-10.101562-54.796875-28.296875-75.929688-13.410156-15.585937-21.457031-35.929687-21.269531-58.160156.394531-46.488281 36.652344-84.214844 82.425781-87.070312-35.449219 11.140624-61.203125 44.0625-61.535156 83.210937-.191406 22.21875 7.855469 42.5625 21.277344 58.15625zm0 0" fill="#ffe571"/><path d="m267.65625 149.046875c-18.195312 21.136719-28.296875 48.039063-28.296875 75.929687v17.003907h20.894531v-13.140625c0-27.890625 10.101563-54.796875 28.296875-75.929688 13.410157-15.585937 21.457031-35.929687 21.273438-58.160156-.398438-46.488281-36.65625-84.214844-82.425781-87.070312 35.445312 11.140624 61.199218 44.0625 61.53125 83.210937.191406 22.21875-7.855469 42.5625-21.273438 58.15625zm0 0" fill="#ffe571"/><path d="m178.820312 241.980469h85.964844v56.996093h-85.964844zm0 0" fill="#fff"/><path d="m299.6875 315.351562c1.628906.707032-2.125-3.085937-3.191406-4.511718-36.367188-48.652344-75.265625-8.625-75.265625-8.625-47.722657-35.242188-77.316407 22.4375-77.316407 22.4375s44.546876-33.695313 75.804688 6.125c0 0 24.660156-39.421875 79.96875-15.425782zm0 0" fill="#fff"/><path d="m344.28125 233.25 51.007812-8.4375-42.566406-42.570312zm0 0" fill="#76ffd9"/><path d="m118.796875 233.25-51.007813-8.4375 42.570313-42.570312zm0 0" fill="#76ffd9"/><g fill="#434c54"><path d="m62.265625 330.765625c1.398437 0 2.8125-.390625 4.074219-1.207031 10.761718-6.980469 21.773437-8.835938 21.863281-8.851563 3.269531-.511719 5.816406-3.105469 6.269531-6.382812 1.511719-10.976563 5.496094-18.46875 11.84375-22.269531 11.148438-6.671876 26.910156-.964844 27.046875-.914063 2.316407.875 4.917969.550781 6.949219-.871094 2.03125-1.417969 3.230469-3.75 3.203125-6.230469-.136719-12.335937 3.003906-21.472656 9.335937-27.152343 5.726563-5.136719 13.183594-6.726563 18.464844-7.152344v37.871094c-21.566406 9.695312-33.515625 32.53125-34.074218 33.621093-1.890626 3.679688-.4375 8.1875 3.238281 10.082032 1.097656.566406 2.269531.835937 3.425781.835937 2.71875 0 5.339844-1.480469 6.675781-4.054687.125-.242188 12.761719-24.21875 33.203125-28.964844 10.421875-2.421875 21.515625.648438 32.988282 9.121094 3.019531 2.226562 7.222656 1.882812 9.835937-.808594.140625-.144531 14.53125-14.707031 32.617187-13.082031 12.261719 1.109375 23.777344 9.578125 34.230469 25.171875 2.308594 3.441406 6.964844 4.359375 10.40625 2.054687 3.441407-2.308593 4.359375-6.964843 2.054688-10.40625-10.011719-14.933593-21.289063-24.679687-33.632813-29.136719v-23.835937c16.984375 2.265625 30.714844 8.339844 40.871094 18.117187 1.457031 1.398438 3.328125 2.09375 5.203125 2.09375 1.964844 0 3.929687-.769531 5.402344-2.296874 2.871093-2.984376 2.78125-7.730469-.203125-10.605469-12.921875-12.4375-30.160156-19.957031-51.273438-22.417969v-1.113281c0-3.085938-1.863281-5.738281-4.53125-6.886719v-6.25c0-25.773438 9.515625-51.128906 26.789063-71.40625 11.023437-12.9375 18.398437-28.582031 21.332031-45.25.71875-4.078125-2.007812-7.96875-6.085938-8.6875-4.085937-.722656-7.96875 2.007812-8.6875 6.085938-2.472656 14.039062-8.6875 27.21875-17.976562 38.121093-19.585938 22.988281-30.371094 51.804688-30.371094 81.136719v5.636719h-10.242187v-26.960938c0-4.140625-3.355469-7.5-7.5-7.5s-7.5 3.359375-7.5 7.5v1.257813h-11.421875v-1.257813c0-4.140625-3.355469-7.5-7.5-7.5-4.144532 0-7.5 3.359375-7.5 7.5v26.960938h-10.242188v-5.636719c0-29.5625-10.691406-58.269531-30.109375-80.828125-12.714843-14.773437-19.625-33.667969-19.457031-53.195313.375-44.015624 36.5-79.820312 80.519531-79.820312 39.480469 0 72.875 28.207031 79.40625 67.066406.6875 4.085938 4.554688 6.835938 8.640625 6.152344 4.085938-.6875 6.839844-4.554688 6.152344-8.640625-3.699219-22.011719-15.136719-42.15625-32.199219-56.726563-17.257812-14.734374-39.273437-22.851562-62-22.851562-25.386719 0-49.277343 9.824219-67.273437 27.660156-17.996094 17.835938-28.027344 41.644532-28.246094 67.027344-.199219 23.167969 8 45.582031 23.089844 63.113281 17.074218 19.839844 26.476562 45.066407 26.476562 71.039063v5.765625c-6.917968-.136719-21.554687.925781-32.882812 11-7.84375 6.980469-12.523438 16.722656-13.972656 29.046875-8.089844-1.347656-19.933594-1.671875-30.28125 4.476562-9.308594 5.53125-15.417969 14.925782-18.195313 27.96875-5.304687 1.433594-13.828125 4.355469-22.339844 9.875-3.472656 2.253906-4.460937 6.898438-2.207031 10.375 1.433594 2.214844 3.839844 3.417969 6.296875 3.417969zm195.023437-81.285156v10.875h-70.972656v-10.875zm-36.617187 43.265625c-11.496094-7.269532-23.007813-10.34375-34.355469-9.199219v-8.191406h70.972656v3.882812c-16.441406-.304687-29.824218 8.148438-36.617187 13.507813zm-4.582031-68.96875h11.421875v10.703125h-11.421875zm0 0"/><path d="m349.808594 347.9375c.792968-10.363281 1.167968-33.480469-8.136719-55.59375-1.605469-3.816406-6.003906-5.609375-9.824219-4.003906-3.816406 1.605468-5.609375 6.003906-4.003906 9.820312 10.550781 25.066406 6.582031 52.820313 6.542969 53.085938-.503907 3.320312 1.261719 6.570312 4.316406 7.957031 13.394531 6.078125 21.167969 13.601563 23.089844 22.363281 2.953125 13.4375-8.339844 26.703125-8.4375 26.816406-1.089844 1.242188-1.738281 2.8125-1.84375 4.460938-.496094 7.648438-2.871094 13.28125-7.058594 16.746094-3.71875 3.074218-8.371094 4.113281-11.828125 4.425781l-6.972656-29.203125c-.960938-4.03125-5-6.515625-9.035156-5.554688-4.03125.964844-6.515626 5.007813-5.554688 9.039063l8.304688 34.773437 10.300781 51.933594-28.421875-34.839844c-1.621094-1.984374-4.144532-3.015624-6.691406-2.707031-65.300782 7.714844-72.582032-22.984375-72.988282-25.011719-.3125-2.367187-1.722656-4.339843-3.816406-5.484374-2.109375-1.15625-4.628906-1.121094-6.804688-.09375-26.820312 12.726562-49.125 15.546874-66.292968 8.382812-18.617188-7.765625-24.933594-25.234375-24.980469-25.375-.71875-2.113281-2.339844-3.800781-4.429687-4.597656-2.085938-.796875-4.417969-.621094-6.363282.480468-5.136718 2.898438-28.644531 8.136719-45.6875-.933593-10.554687-5.617188-16.492187-15.925781-17.648437-30.636719-.644531-8.257812.21875-15.777344 2.578125-22.347656 1.398437-3.898438-.628906-8.191406-4.527344-9.59375-3.898438-1.394532-8.191406.628906-9.59375 4.527344-3.078125 8.582031-4.222656 18.199218-3.410156 28.585937 1.96875 25.105469 14.984375 37.078125 25.550781 42.703125 17.144531 9.121094 39.417969 7.71875 52.632813 3.773438 4.332031 7.828124 13.382812 20.179687 29.808593 27.132812 19.574219 8.285156 43.539063 6.53125 71.324219-5.195312 6.519531 12.925781 25.957031 34.558593 82.289062 29.023437l29.730469 36.441406c1.421875 1.746094 3.558594 2.757813 5.8125 2.757813h11.460938c2.246093 0 4.371093-1.003906 5.796875-2.738282 1.421875-1.734374 1.996094-4.019531 1.558594-6.21875l-10.769532-54.308593c5.433594-.722657 12.203125-2.664063 18.074219-7.460938 7.085937-5.78125 11.253906-14.199219 12.414063-25.050781 4.058593-5.402344 13.886718-20.675781 10.199218-37.746094-2.675781-12.394531-11.636718-22.648437-26.664062-30.535156zm0 0"/><path d="m104.253906 350.773438c-9.71875.515624-15.933594 7.328124-16.609375 8.105468l5.648438 4.933594 5.585937 5.003906c.015625-.019531 1.824219-1.953125 4.425782-2.746094 1.890624-.578124 4.925781-.875 9.382812 3.246094 1.441406 1.335938 3.269531 1.996094 5.089844 1.996094 2.019531 0 4.03125-.8125 5.507812-2.410156 2.8125-3.039063 2.628906-7.785156-.414062-10.597656-7.203125-6.664063-14.109375-7.78125-18.617188-7.53125zm0 0"/><path d="m281.582031 351.8125c8.574219-3.277344 18.144531-2.546875 28.445313 2.171875 3.765625 1.726563 8.21875.066406 9.9375-3.699219 1.726562-3.765625.070312-8.214844-3.695313-9.941406-14.144531-6.476562-27.65625-7.3125-40.164062-2.496094-14.578125 5.613282-24.082031 17.667969-29.058594 25.660156-11.410156-6.230468-22.90625-7.304687-32.164063-6.5625-16.917968 1.363282-29.714843 9.003907-30.25 9.328126-3.535156 2.140624-4.664062 6.734374-2.535156 10.273437 2.128906 3.542969 6.730469 4.6875 10.28125 2.574219 1.652344-.988282 40.71875-23.664063 66.09375 15.855468 1.433594 2.230469 3.851563 3.449219 6.316406 3.449219 1.390626 0 2.792969-.386719 4.046876-1.1875 3.484374-2.238281 4.496093-6.878906 2.257812-10.367187-3.75-5.839844-7.75-10.605469-11.878906-14.488282 3.636718-6.078124 11.121094-16.277343 22.367187-20.570312zm0 0"/></g><path d="m421.457031 300.265625h-7.417969v-7.417969c0-4.144531-3.359374-7.5-7.5-7.5-4.144531 0-7.5 3.355469-7.5 7.5v7.417969h-7.421874c-4.144532 0-7.5 3.359375-7.5 7.5 0 4.144531 3.355468 7.5 7.5 7.5h7.421874v7.421875c0 4.140625 3.355469 7.5 7.5 7.5 4.140626 0 7.5-3.359375 7.5-7.5v-7.421875h7.417969c4.140625 0 7.5-3.355469 7.5-7.5 0-4.140625-3.359375-7.5-7.5-7.5zm0 0" fill="#ffc843"/><path d="m78.375 144.1875h7.417969v7.417969c0 4.140625 3.359375 7.5 7.5 7.5 4.144531 0 7.5-3.359375 7.5-7.5v-7.417969h7.417969c4.144531 0 7.5-3.359375 7.5-7.5 0-4.144531-3.355469-7.5-7.5-7.5h-7.417969v-7.421875c0-4.144531-3.355469-7.5-7.5-7.5-4.140625 0-7.5 3.355469-7.5 7.5v7.421875h-7.417969c-4.144531 0-7.5 3.355469-7.5 7.5 0 4.140625 3.355469 7.5 7.5 7.5zm0 0" fill="#ffc843"/><path d="m30.417969 282.152344h7.417969c4.144531 0 7.5-3.355469 7.5-7.5 0-4.140625-3.355469-7.5-7.5-7.5h-7.417969v-7.417969c0-4.144531-3.359375-7.5-7.5-7.5-4.144531 0-7.5 3.355469-7.5 7.5v7.417969h-7.417969c-4.144531 0-7.5 3.359375-7.5 7.5 0 4.144531 3.355469 7.5 7.5 7.5h7.417969v7.417968c0 4.144532 3.355469 7.5 7.5 7.5 4.140625 0 7.5-3.355468 7.5-7.5zm0 0" fill="#ffc843"/><path d="m344.28125 240.75c.40625 0 .816406-.03125 1.226562-.101562l51.007813-8.4375c2.773437-.460938 5.058594-2.429688 5.917969-5.105469s.148437-5.609375-1.839844-7.597657l-42.566406-42.570312c-1.988282-1.988281-4.921875-2.695312-7.597656-1.835938-2.675782.859376-4.648438 3.144532-5.105469 5.917969l-8.441407 51.007813c-.394531 2.386718.386719 4.816406 2.097657 6.527344 1.417969 1.417968 3.328125 2.195312 5.300781 2.195312zm13.457031-42.886719 21.929688 21.929688-26.277344 4.347656zm0 0" fill="#434c54"/><path d="m66.566406 232.210938 51.007813 8.4375c.40625.070312.816406.101562 1.222656.101562 1.976563 0 3.886719-.777344 5.304687-2.195312 1.710938-1.710938 2.492188-4.140626 2.097657-6.527344l-8.441407-51.007813c-.457031-2.773437-2.429687-5.058593-5.105468-5.917969-2.679688-.859374-5.609375-.152343-7.597656 1.835938l-42.566407 42.570312c-1.988281 1.988282-2.695312 4.917969-1.835937 7.597657.855468 2.675781 3.136718 4.644531 5.914062 5.105469zm38.773438-34.347657 4.347656 26.277344-26.273438-4.347656zm0 0" fill="#434c54"/></svg>